<svg width="561" height="37" viewBox="0 0 561 37" fill="none" xmlns="http://www.w3.org/2000/svg">
<path opacity="0.18" d="M0.967578 5.9H10.2676V36H15.9676V5.9H25.2176V1.25H0.967578V5.9ZM49.4402 11.65C49.4402 15.1 47.4402 17.55 42.9902 17.55H36.6902V5.9H42.9902C47.4402 5.9 49.4402 8.15 49.4402 11.65ZM30.9902 1.25V36H36.6902V22.1H41.0402L49.0402 36H55.8402L47.2402 21.6C53.0902 20.15 55.2902 15.75 55.2902 11.65C55.2902 6 51.2402 1.25 42.9902 1.25H30.9902ZM86.032 36H92.032L79.582 1.2H72.982L60.532 36H66.482L68.982 28.9H83.532L86.032 36ZM81.932 24.25H70.582L76.282 8.1L81.932 24.25ZM95.5453 18.55C95.5453 29 103.495 36.3 113.295 36.3C120.545 36.3 126.795 32.7 129.445 25.9H122.595C120.745 29.6 117.445 31.35 113.295 31.35C106.395 31.35 101.395 26.4 101.395 18.55C101.395 10.7 106.395 5.8 113.295 5.8C117.445 5.8 120.745 7.55 122.595 11.25H129.445C126.795 4.45 120.545 0.799997 113.295 0.799997C103.495 0.799997 95.5453 8.15 95.5453 18.55ZM155.267 36H162.717L147.367 18.65L162.467 1.25H155.317L141.817 17.1V1.25H136.117V36H141.817V20.45L155.267 36ZM189.296 23.4V36H194.996V23.4L206.496 1.25H200.196L192.146 18.3L184.096 1.25H177.746L189.296 23.4ZM244.62 18.55C244.62 8.15 236.77 0.799997 226.87 0.799997C217.07 0.799997 209.12 8.15 209.12 18.55C209.12 29 217.07 36.35 226.87 36.35C236.77 36.35 244.62 29 244.62 18.55ZM214.97 18.55C214.97 10.7 219.97 5.8 226.87 5.8C233.77 5.8 238.77 10.7 238.77 18.55C238.77 26.4 233.77 31.4 226.87 31.4C219.97 31.4 214.97 26.4 214.97 18.55ZM250.179 23.3C250.179 32.15 256.379 36.35 263.679 36.35C270.929 36.35 277.329 32.15 277.329 23.3V1.25H271.629V23.4C271.629 28.8 268.579 31.35 263.729 31.35C258.929 31.35 255.879 28.8 255.879 23.4V1.25H250.179V23.3ZM303.2 11.65C303.2 15.1 301.2 17.55 296.75 17.55H290.45V5.9H296.75C301.2 5.9 303.2 8.15 303.2 11.65ZM284.75 1.25V36H290.45V22.1H294.8L302.8 36H309.6L301 21.6C306.85 20.15 309.05 15.75 309.05 11.65C309.05 6 305 1.25 296.75 1.25H284.75ZM335.03 17.25V5.9H341.33C345.78 5.9 347.78 8 347.78 11.6C347.78 15.1 345.78 17.25 341.33 17.25H335.03ZM353.63 11.6C353.63 5.95 349.58 1.25 341.33 1.25H329.33V36H335.03V21.9H341.33C350.38 21.9 353.63 16.55 353.63 11.6ZM377.516 11.65C377.516 15.1 375.516 17.55 371.066 17.55H364.766V5.9H371.066C375.516 5.9 377.516 8.15 377.516 11.65ZM359.066 1.25V36H364.766V22.1H369.116L377.116 36H383.916L375.316 21.6C381.166 20.15 383.366 15.75 383.366 11.65C383.366 6 379.316 1.25 371.066 1.25H359.066ZM424.258 18.55C424.258 8.15 416.408 0.799997 406.508 0.799997C396.708 0.799997 388.758 8.15 388.758 18.55C388.758 29 396.708 36.35 406.508 36.35C416.408 36.35 424.258 29 424.258 18.55ZM394.608 18.55C394.608 10.7 399.608 5.8 406.508 5.8C413.408 5.8 418.408 10.7 418.408 18.55C418.408 26.4 413.408 31.4 406.508 31.4C399.608 31.4 394.608 26.4 394.608 18.55ZM441.217 1.25H429.867V36H441.217C452.367 36 459.667 29.45 459.667 18.75C459.667 8 452.367 1.25 441.217 1.25ZM435.567 31.35V5.9H441.217C449.417 5.9 453.817 10.8 453.817 18.75C453.817 26.65 449.417 31.35 441.217 31.35H435.567ZM465.266 23.3C465.266 32.15 471.466 36.35 478.766 36.35C486.016 36.35 492.416 32.15 492.416 23.3V1.25H486.716V23.4C486.716 28.8 483.666 31.35 478.816 31.35C474.016 31.35 470.966 28.8 470.966 23.4V1.25H465.266V23.3ZM497.938 18.55C497.938 29 505.888 36.3 515.688 36.3C522.938 36.3 529.188 32.7 531.838 25.9H524.988C523.138 29.6 519.838 31.35 515.688 31.35C508.788 31.35 503.788 26.4 503.788 18.55C503.788 10.7 508.788 5.8 515.688 5.8C519.838 5.8 523.138 7.55 524.988 11.25H531.838C529.188 4.45 522.938 0.799997 515.688 0.799997C505.888 0.799997 497.938 8.15 497.938 18.55ZM536.71 5.9H546.01V36H551.71V5.9H560.96V1.25H536.71V5.9Z" fill="white"/>
</svg>
