<svg width="56" height="57" viewBox="0 0 56 57" fill="none" xmlns="http://www.w3.org/2000/svg">
<g filter="url(#filter0_d_0_77)">
<circle cx="33" cy="20" r="20" fill="url(#paint0_linear_0_77)"/>
</g>
<path fill-rule="evenodd" clip-rule="evenodd" d="M42.7396 15.2039C42.2848 15.9069 41.7094 16.4977 41.0435 17.0001C40.9115 17.0997 40.8692 17.1984 40.8736 17.3663C40.9197 19.1529 40.5308 20.8488 39.7596 22.4557C38.8374 24.3771 37.4949 25.9328 35.6759 27.06C34.3853 27.8598 32.9796 28.3356 31.476 28.5368C30.4165 28.6787 29.3574 28.6816 28.3013 28.5298C26.7706 28.3098 25.346 27.7903 24.0375 26.9609C24.0283 26.9551 24.0226 26.944 24 26.9176C26.0817 27.1078 27.9521 26.5977 29.645 25.3255C27.8814 25.1695 26.7057 24.2805 26.0435 22.632C26.6342 22.6967 27.1843 22.7152 27.7528 22.5539C25.5218 22.0003 24.6279 20.0243 24.7234 18.7484C24.991 18.8503 25.253 18.9724 25.5278 19.0484C25.8023 19.1243 26.0895 19.1542 26.3836 19.181C25.5848 18.5679 25.0465 17.7961 24.8289 16.817C24.6122 15.8424 24.7673 14.9225 25.2563 14.0342C27.3485 16.4966 29.985 17.8529 33.2115 18.073C33.1899 17.8224 33.1598 17.5884 33.1511 17.3536C33.081 15.4456 34.3382 13.7945 36.1998 13.4081C37.5122 13.1356 38.6798 13.4768 39.6653 14.3941C39.7814 14.5021 39.8771 14.5364 40.034 14.4982C40.7468 14.3248 41.4294 14.0772 42.071 13.7201C42.1235 13.6909 42.1781 13.6653 42.2695 13.6188C41.9727 14.521 41.4296 15.1815 40.6889 15.7267C40.9149 15.685 41.1425 15.6507 41.3663 15.5994C41.5929 15.5476 41.8178 15.4855 42.0396 15.4156C42.2671 15.3438 42.4901 15.2572 42.7151 15.1771C42.7225 15.1866 42.7307 15.1956 42.7396 15.2039Z" fill="white"/>
<path fill-rule="evenodd" clip-rule="evenodd" d="M30.8863 13.01C30.904 13.0067 30.9216 13.0033 30.9391 13C30.9317 13.0176 30.9241 13.0351 30.9166 13.0528C30.9057 13.0395 30.8956 13.0253 30.8863 13.01Z" fill="#04A9F3"/>
<defs>
<filter id="filter0_d_0_77" x="0" y="0" width="56" height="57" filterUnits="userSpaceOnUse" color-interpolation-filters="sRGB">
<feFlood flood-opacity="0" result="BackgroundImageFix"/>
<feColorMatrix in="SourceAlpha" type="matrix" values="0 0 0 0 0 0 0 0 0 0 0 0 0 0 0 0 0 0 127 0" result="hardAlpha"/>
<feOffset dx="-5" dy="9"/>
<feGaussianBlur stdDeviation="4"/>
<feColorMatrix type="matrix" values="0 0 0 0 0 0 0 0 0 0 0 0 0 0 0 0 0 0 0.188235 0"/>
<feBlend mode="normal" in2="BackgroundImageFix" result="effect1_dropShadow_0_77"/>
<feBlend mode="normal" in="SourceGraphic" in2="effect1_dropShadow_0_77" result="shape"/>
</filter>
<linearGradient id="paint0_linear_0_77" x1="-12.6375" y1="22.3679" x2="32.0983" y2="73.643" gradientUnits="userSpaceOnUse">
<stop stop-color="white"/>
<stop offset="1" stop-color="#00B99E"/>
</linearGradient>
</defs>
</svg>
